<mxfile host="Electron" modified="2024-06-03T02:43:39.494Z" agent="Mozilla/5.0 (Macintosh; Intel Mac OS X 10_15_7) AppleWebKit/537.36 (KHTML, like Gecko) draw.io/24.4.13 Chrome/124.0.6367.207 Electron/30.0.6 Safari/537.36" etag="bv0JEXsP1iuzBrzEz1zt" version="24.4.13" type="device">
  <diagram name="Page-1" id="WQnpbpdp-QNOCgzFID8v">
    <mxGraphModel dx="2842" dy="1550" grid="0" gridSize="10" guides="1" tooltips="1" connect="1" arrows="1" fold="1" page="0" pageScale="1" pageWidth="827" pageHeight="1169" math="0" shadow="0">
      <root>
        <mxCell id="0" />
        <mxCell id="1" parent="0" />
        <mxCell id="bEeewwVaKX5SEmDx8hrK-1" value="" style="rounded=0;whiteSpace=wrap;html=1;" parent="1" vertex="1">
          <mxGeometry x="-445" y="-126" width="1491" height="780" as="geometry" />
        </mxCell>
        <mxCell id="UzDjHrWX8j1EaaDa1J7--122" value="AWS Cloud" style="sketch=0;outlineConnect=0;html=1;whiteSpace=wrap;fontSize=12;fontStyle=0;shape=mxgraph.aws4.group;grIcon=mxgraph.aws4.group_aws_cloud;strokeColor=#d79b00;fillColor=#ffe6cc;verticalAlign=top;align=left;spacingLeft=30;dashed=0;" parent="1" vertex="1">
          <mxGeometry x="-231" y="-20" width="1199" height="573" as="geometry" />
        </mxCell>
        <mxCell id="UzDjHrWX8j1EaaDa1J7--123" value="Region" style="sketch=0;outlineConnect=0;html=1;whiteSpace=wrap;fontSize=12;fontStyle=0;shape=mxgraph.aws4.group;grIcon=mxgraph.aws4.group_region;verticalAlign=top;align=left;spacingLeft=30;dashed=1;fillColor=#dae8fc;strokeColor=#6c8ebf;" parent="1" vertex="1">
          <mxGeometry x="-205" y="6" width="1147" height="528" as="geometry" />
        </mxCell>
        <mxCell id="UzDjHrWX8j1EaaDa1J7--124" value="VPC" style="sketch=0;outlineConnect=0;html=1;whiteSpace=wrap;fontSize=12;fontStyle=0;shape=mxgraph.aws4.group;grIcon=mxgraph.aws4.group_vpc;verticalAlign=top;align=left;spacingLeft=30;dashed=0;" parent="1" vertex="1">
          <mxGeometry x="-180" y="30" width="1097" height="480" as="geometry" />
        </mxCell>
        <mxCell id="UzDjHrWX8j1EaaDa1J7--215" value="" style="group" parent="1" vertex="1" connectable="0">
          <mxGeometry x="-18" y="63" width="594" height="421" as="geometry" />
        </mxCell>
        <mxCell id="UzDjHrWX8j1EaaDa1J7--151" value="" style="fillColor=none;strokeColor=#d79b00;dashed=0;verticalAlign=top;fontStyle=1;whiteSpace=wrap;html=1;strokeWidth=2;fontColor=#ed7100;fontSize=14;fontFamily=Verdana;align=center;" parent="UzDjHrWX8j1EaaDa1J7--215" vertex="1">
          <mxGeometry x="0.9785831960461285" width="593.0214168039539" height="421" as="geometry" />
        </mxCell>
        <mxCell id="UzDjHrWX8j1EaaDa1J7--152" value="" style="sketch=0;points=[[0,0,0],[0.25,0,0],[0.5,0,0],[0.75,0,0],[1,0,0],[0,1,0],[0.25,1,0],[0.5,1,0],[0.75,1,0],[1,1,0],[0,0.25,0],[0,0.5,0],[0,0.75,0],[1,0.25,0],[1,0.5,0],[1,0.75,0]];outlineConnect=0;fontColor=#232F3E;fillColor=#ED7100;strokeColor=#ffffff;dashed=0;verticalLabelPosition=bottom;verticalAlign=top;align=center;html=1;fontSize=12;fontStyle=0;aspect=fixed;shape=mxgraph.aws4.resourceIcon;resIcon=mxgraph.aws4.eks;" parent="UzDjHrWX8j1EaaDa1J7--215" vertex="1">
          <mxGeometry width="21.3155856625907" height="21.3155856625907" as="geometry" />
        </mxCell>
        <mxCell id="UzDjHrWX8j1EaaDa1J7--153" value="Amazon EKS Cluster" style="text;html=1;align=left;verticalAlign=middle;whiteSpace=wrap;rounded=0;fontColor=#FF8000;" parent="UzDjHrWX8j1EaaDa1J7--215" vertex="1">
          <mxGeometry x="29.65396605675404" y="0.002279792746115561" width="123.98764902566703" height="28.834196891191713" as="geometry" />
        </mxCell>
        <mxCell id="UzDjHrWX8j1EaaDa1J7--192" value="Availability Zone B" style="fillColor=none;strokeColor=#147EBA;dashed=1;verticalAlign=top;fontStyle=0;fontColor=#147EBA;whiteSpace=wrap;html=1;" parent="1" vertex="1">
          <mxGeometry x="87" y="289" width="738" height="161" as="geometry" />
        </mxCell>
        <mxCell id="UzDjHrWX8j1EaaDa1J7--174" value="Availability Zone A" style="fillColor=none;strokeColor=#147EBA;dashed=1;verticalAlign=top;fontStyle=0;fontColor=#147EBA;whiteSpace=wrap;html=1;" parent="1" vertex="1">
          <mxGeometry x="89" y="101" width="738" height="161" as="geometry" />
        </mxCell>
        <mxCell id="UzDjHrWX8j1EaaDa1J7--208" value="Private Subnet B" style="sketch=0;outlineConnect=0;gradientColor=none;html=1;whiteSpace=wrap;fontSize=12;fontStyle=0;shape=mxgraph.aws4.group;grIcon=mxgraph.aws4.group_subnet;strokeColor=#53A600;fillColor=none;verticalAlign=top;align=left;spacingLeft=30;fontColor=#879196;dashed=0;" parent="1" vertex="1">
          <mxGeometry x="103" y="317" width="446" height="120" as="geometry" />
        </mxCell>
        <mxCell id="UzDjHrWX8j1EaaDa1J7--150" value="Private Subnet A" style="sketch=0;outlineConnect=0;gradientColor=none;html=1;whiteSpace=wrap;fontSize=12;fontStyle=0;shape=mxgraph.aws4.group;grIcon=mxgraph.aws4.group_subnet;strokeColor=#53A600;fillColor=none;verticalAlign=top;align=left;spacingLeft=30;fontColor=#879196;dashed=0;" parent="1" vertex="1">
          <mxGeometry x="105" y="129" width="446" height="120" as="geometry" />
        </mxCell>
        <mxCell id="UzDjHrWX8j1EaaDa1J7--220" value="Public Subnet A" style="sketch=0;outlineConnect=0;gradientColor=none;html=1;whiteSpace=wrap;fontSize=12;fontStyle=0;shape=mxgraph.aws4.group;grIcon=mxgraph.aws4.group_subnet;strokeColor=#990000;fillColor=none;verticalAlign=top;align=left;spacingLeft=30;fontColor=#879196;dashed=0;" parent="1" vertex="1">
          <mxGeometry x="-146" y="129" width="230" height="313" as="geometry" />
        </mxCell>
        <mxCell id="UzDjHrWX8j1EaaDa1J7--219" value="Multi-AZ Cluster" style="fillColor=none;strokeColor=#5A6C86;dashed=1;verticalAlign=top;fontStyle=0;fontColor=#5A6C86;whiteSpace=wrap;html=1;" parent="1" vertex="1">
          <mxGeometry x="737" y="120" width="69" height="320" as="geometry" />
        </mxCell>
        <mxCell id="UzDjHrWX8j1EaaDa1J7--218" value="Multi-AZ Cluster" style="fillColor=none;strokeColor=#5A6C86;dashed=1;verticalAlign=top;fontStyle=0;fontColor=#5A6C86;whiteSpace=wrap;html=1;" parent="1" vertex="1">
          <mxGeometry x="661.75" y="120" width="69" height="320" as="geometry" />
        </mxCell>
        <mxCell id="UzDjHrWX8j1EaaDa1J7--217" value="Multi-AZ Cluster" style="fillColor=none;strokeColor=#5A6C86;dashed=1;verticalAlign=top;fontStyle=0;fontColor=#5A6C86;whiteSpace=wrap;html=1;" parent="1" vertex="1">
          <mxGeometry x="587" y="120" width="69" height="320" as="geometry" />
        </mxCell>
        <mxCell id="UzDjHrWX8j1EaaDa1J7--135" value="" style="group" parent="1" vertex="1" connectable="0">
          <mxGeometry x="128" y="175" width="70" height="44.5" as="geometry" />
        </mxCell>
        <mxCell id="UzDjHrWX8j1EaaDa1J7--136" value="" style="outlineConnect=0;dashed=0;verticalLabelPosition=bottom;verticalAlign=top;align=center;html=1;shape=mxgraph.aws3.ec2_compute_container;fillColor=#F58534;gradientColor=none;" parent="UzDjHrWX8j1EaaDa1J7--135" vertex="1">
          <mxGeometry width="60" height="34.5" as="geometry" />
        </mxCell>
        <mxCell id="UzDjHrWX8j1EaaDa1J7--137" value="API" style="outlineConnect=0;dashed=0;verticalLabelPosition=bottom;verticalAlign=top;align=center;html=1;shape=mxgraph.aws3.ec2_compute_container;fillColor=#F58534;gradientColor=none;" parent="UzDjHrWX8j1EaaDa1J7--135" vertex="1">
          <mxGeometry x="10" y="10" width="60" height="34.5" as="geometry" />
        </mxCell>
        <mxCell id="UzDjHrWX8j1EaaDa1J7--138" value="" style="group" parent="1" vertex="1" connectable="0">
          <mxGeometry x="235" y="175" width="70" height="44.5" as="geometry" />
        </mxCell>
        <mxCell id="UzDjHrWX8j1EaaDa1J7--139" value="" style="outlineConnect=0;dashed=0;verticalLabelPosition=bottom;verticalAlign=top;align=center;html=1;shape=mxgraph.aws3.ec2_compute_container;fillColor=#F58534;gradientColor=none;" parent="UzDjHrWX8j1EaaDa1J7--138" vertex="1">
          <mxGeometry width="60" height="34.5" as="geometry" />
        </mxCell>
        <mxCell id="UzDjHrWX8j1EaaDa1J7--140" value="Artifact" style="outlineConnect=0;dashed=0;verticalLabelPosition=bottom;verticalAlign=top;align=center;html=1;shape=mxgraph.aws3.ec2_compute_container;fillColor=#F58534;gradientColor=none;" parent="UzDjHrWX8j1EaaDa1J7--138" vertex="1">
          <mxGeometry x="10" y="10" width="60" height="34.5" as="geometry" />
        </mxCell>
        <mxCell id="UzDjHrWX8j1EaaDa1J7--141" value="" style="group" parent="1" vertex="1" connectable="0">
          <mxGeometry x="343" y="175" width="70" height="44.5" as="geometry" />
        </mxCell>
        <mxCell id="UzDjHrWX8j1EaaDa1J7--142" value="" style="outlineConnect=0;dashed=0;verticalLabelPosition=bottom;verticalAlign=top;align=center;html=1;shape=mxgraph.aws3.ec2_compute_container;fillColor=#F58534;gradientColor=none;" parent="UzDjHrWX8j1EaaDa1J7--141" vertex="1">
          <mxGeometry width="60" height="34.5" as="geometry" />
        </mxCell>
        <mxCell id="UzDjHrWX8j1EaaDa1J7--143" value="Search" style="outlineConnect=0;dashed=0;verticalLabelPosition=bottom;verticalAlign=top;align=center;html=1;shape=mxgraph.aws3.ec2_compute_container;fillColor=#F58534;gradientColor=none;" parent="UzDjHrWX8j1EaaDa1J7--141" vertex="1">
          <mxGeometry x="10" y="10" width="60" height="34.5" as="geometry" />
        </mxCell>
        <mxCell id="UzDjHrWX8j1EaaDa1J7--144" value="" style="group" parent="1" vertex="1" connectable="0">
          <mxGeometry x="450" y="174" width="70" height="44.5" as="geometry" />
        </mxCell>
        <mxCell id="UzDjHrWX8j1EaaDa1J7--145" value="" style="outlineConnect=0;dashed=0;verticalLabelPosition=bottom;verticalAlign=top;align=center;html=1;shape=mxgraph.aws3.ec2_compute_container;fillColor=#F58534;gradientColor=none;" parent="UzDjHrWX8j1EaaDa1J7--144" vertex="1">
          <mxGeometry width="60" height="34.5" as="geometry" />
        </mxCell>
        <mxCell id="UzDjHrWX8j1EaaDa1J7--146" value="CICO" style="outlineConnect=0;dashed=0;verticalLabelPosition=bottom;verticalAlign=top;align=center;html=1;shape=mxgraph.aws3.ec2_compute_container;fillColor=#F58534;gradientColor=none;" parent="UzDjHrWX8j1EaaDa1J7--144" vertex="1">
          <mxGeometry x="10" y="10" width="60" height="34.5" as="geometry" />
        </mxCell>
        <mxCell id="UzDjHrWX8j1EaaDa1J7--160" value="K8s&lt;div&gt;Ingress&lt;/div&gt;" style="ellipse;whiteSpace=wrap;html=1;" parent="1" vertex="1">
          <mxGeometry x="-4" y="232" width="80" height="80" as="geometry" />
        </mxCell>
        <mxCell id="UzDjHrWX8j1EaaDa1J7--147" value="Aurora&lt;div&gt;(writer)&lt;/div&gt;" style="sketch=0;points=[[0,0,0],[0.25,0,0],[0.5,0,0],[0.75,0,0],[1,0,0],[0,1,0],[0.25,1,0],[0.5,1,0],[0.75,1,0],[1,1,0],[0,0.25,0],[0,0.5,0],[0,0.75,0],[1,0.25,0],[1,0.5,0],[1,0.75,0]];outlineConnect=0;fontColor=#232F3E;fillColor=#C925D1;strokeColor=#ffffff;dashed=0;verticalLabelPosition=bottom;verticalAlign=top;align=center;html=1;fontSize=12;fontStyle=0;aspect=fixed;shape=mxgraph.aws4.resourceIcon;resIcon=mxgraph.aws4.rds;flipH=0;flipV=0;" parent="1" vertex="1">
          <mxGeometry x="597" y="162" width="46" height="46" as="geometry" />
        </mxCell>
        <mxCell id="UzDjHrWX8j1EaaDa1J7--148" value="OpenSearch&lt;br&gt;(master)" style="sketch=0;points=[[0,0,0],[0.25,0,0],[0.5,0,0],[0.75,0,0],[1,0,0],[0,1,0],[0.25,1,0],[0.5,1,0],[0.75,1,0],[1,1,0],[0,0.25,0],[0,0.5,0],[0,0.75,0],[1,0.25,0],[1,0.5,0],[1,0.75,0]];outlineConnect=0;fontColor=#232F3E;fillColor=#8C4FFF;strokeColor=#ffffff;dashed=0;verticalLabelPosition=bottom;verticalAlign=top;align=center;html=1;fontSize=12;fontStyle=0;aspect=fixed;shape=mxgraph.aws4.resourceIcon;resIcon=mxgraph.aws4.elasticsearch_service;flipH=0;flipV=0;" parent="1" vertex="1">
          <mxGeometry x="673" y="161.5" width="46.5" height="46.5" as="geometry" />
        </mxCell>
        <mxCell id="UzDjHrWX8j1EaaDa1J7--149" value="Kafka" style="sketch=0;points=[[0,0,0],[0.25,0,0],[0.5,0,0],[0.75,0,0],[1,0,0],[0,1,0],[0.25,1,0],[0.5,1,0],[0.75,1,0],[1,1,0],[0,0.25,0],[0,0.5,0],[0,0.75,0],[1,0.25,0],[1,0.5,0],[1,0.75,0]];outlineConnect=0;fontColor=#232F3E;fillColor=#8C4FFF;strokeColor=#ffffff;dashed=0;verticalLabelPosition=bottom;verticalAlign=top;align=center;html=1;fontSize=12;fontStyle=0;aspect=fixed;shape=mxgraph.aws4.resourceIcon;resIcon=mxgraph.aws4.managed_streaming_for_kafka;flipH=0;flipV=0;" parent="1" vertex="1">
          <mxGeometry x="746" y="161" width="50" height="50" as="geometry" />
        </mxCell>
        <mxCell id="UzDjHrWX8j1EaaDa1J7--196" value="" style="group" parent="1" vertex="1" connectable="0">
          <mxGeometry x="126" y="363" width="70" height="44.5" as="geometry" />
        </mxCell>
        <mxCell id="UzDjHrWX8j1EaaDa1J7--197" value="" style="outlineConnect=0;dashed=0;verticalLabelPosition=bottom;verticalAlign=top;align=center;html=1;shape=mxgraph.aws3.ec2_compute_container;fillColor=#F58534;gradientColor=none;" parent="UzDjHrWX8j1EaaDa1J7--196" vertex="1">
          <mxGeometry width="60" height="34.5" as="geometry" />
        </mxCell>
        <mxCell id="UzDjHrWX8j1EaaDa1J7--198" value="API" style="outlineConnect=0;dashed=0;verticalLabelPosition=bottom;verticalAlign=top;align=center;html=1;shape=mxgraph.aws3.ec2_compute_container;fillColor=#F58534;gradientColor=none;" parent="UzDjHrWX8j1EaaDa1J7--196" vertex="1">
          <mxGeometry x="10" y="10" width="60" height="34.5" as="geometry" />
        </mxCell>
        <mxCell id="UzDjHrWX8j1EaaDa1J7--199" value="" style="group" parent="1" vertex="1" connectable="0">
          <mxGeometry x="233" y="363" width="70" height="44.5" as="geometry" />
        </mxCell>
        <mxCell id="UzDjHrWX8j1EaaDa1J7--200" value="" style="outlineConnect=0;dashed=0;verticalLabelPosition=bottom;verticalAlign=top;align=center;html=1;shape=mxgraph.aws3.ec2_compute_container;fillColor=#F58534;gradientColor=none;" parent="UzDjHrWX8j1EaaDa1J7--199" vertex="1">
          <mxGeometry width="60" height="34.5" as="geometry" />
        </mxCell>
        <mxCell id="UzDjHrWX8j1EaaDa1J7--201" value="Artifact" style="outlineConnect=0;dashed=0;verticalLabelPosition=bottom;verticalAlign=top;align=center;html=1;shape=mxgraph.aws3.ec2_compute_container;fillColor=#F58534;gradientColor=none;" parent="UzDjHrWX8j1EaaDa1J7--199" vertex="1">
          <mxGeometry x="10" y="10" width="60" height="34.5" as="geometry" />
        </mxCell>
        <mxCell id="UzDjHrWX8j1EaaDa1J7--202" value="" style="group" parent="1" vertex="1" connectable="0">
          <mxGeometry x="341" y="363" width="70" height="44.5" as="geometry" />
        </mxCell>
        <mxCell id="UzDjHrWX8j1EaaDa1J7--203" value="" style="outlineConnect=0;dashed=0;verticalLabelPosition=bottom;verticalAlign=top;align=center;html=1;shape=mxgraph.aws3.ec2_compute_container;fillColor=#F58534;gradientColor=none;" parent="UzDjHrWX8j1EaaDa1J7--202" vertex="1">
          <mxGeometry width="60" height="34.5" as="geometry" />
        </mxCell>
        <mxCell id="UzDjHrWX8j1EaaDa1J7--204" value="Search" style="outlineConnect=0;dashed=0;verticalLabelPosition=bottom;verticalAlign=top;align=center;html=1;shape=mxgraph.aws3.ec2_compute_container;fillColor=#F58534;gradientColor=none;" parent="UzDjHrWX8j1EaaDa1J7--202" vertex="1">
          <mxGeometry x="10" y="10" width="60" height="34.5" as="geometry" />
        </mxCell>
        <mxCell id="UzDjHrWX8j1EaaDa1J7--205" value="" style="group" parent="1" vertex="1" connectable="0">
          <mxGeometry x="448" y="362" width="70" height="44.5" as="geometry" />
        </mxCell>
        <mxCell id="UzDjHrWX8j1EaaDa1J7--206" value="" style="outlineConnect=0;dashed=0;verticalLabelPosition=bottom;verticalAlign=top;align=center;html=1;shape=mxgraph.aws3.ec2_compute_container;fillColor=#F58534;gradientColor=none;" parent="UzDjHrWX8j1EaaDa1J7--205" vertex="1">
          <mxGeometry width="60" height="34.5" as="geometry" />
        </mxCell>
        <mxCell id="UzDjHrWX8j1EaaDa1J7--207" value="CICO" style="outlineConnect=0;dashed=0;verticalLabelPosition=bottom;verticalAlign=top;align=center;html=1;shape=mxgraph.aws3.ec2_compute_container;fillColor=#F58534;gradientColor=none;" parent="UzDjHrWX8j1EaaDa1J7--205" vertex="1">
          <mxGeometry x="10" y="10" width="60" height="34.5" as="geometry" />
        </mxCell>
        <mxCell id="UzDjHrWX8j1EaaDa1J7--209" value="Aurora&lt;br&gt;(reader)" style="sketch=0;points=[[0,0,0],[0.25,0,0],[0.5,0,0],[0.75,0,0],[1,0,0],[0,1,0],[0.25,1,0],[0.5,1,0],[0.75,1,0],[1,1,0],[0,0.25,0],[0,0.5,0],[0,0.75,0],[1,0.25,0],[1,0.5,0],[1,0.75,0]];outlineConnect=0;fontColor=#232F3E;fillColor=#C925D1;strokeColor=#ffffff;dashed=0;verticalLabelPosition=bottom;verticalAlign=top;align=center;html=1;fontSize=12;fontStyle=0;aspect=fixed;shape=mxgraph.aws4.resourceIcon;resIcon=mxgraph.aws4.rds;flipH=0;flipV=0;" parent="1" vertex="1">
          <mxGeometry x="597" y="339" width="46" height="46" as="geometry" />
        </mxCell>
        <mxCell id="UzDjHrWX8j1EaaDa1J7--210" value="OpenSearch&lt;br&gt;(data)" style="sketch=0;points=[[0,0,0],[0.25,0,0],[0.5,0,0],[0.75,0,0],[1,0,0],[0,1,0],[0.25,1,0],[0.5,1,0],[0.75,1,0],[1,1,0],[0,0.25,0],[0,0.5,0],[0,0.75,0],[1,0.25,0],[1,0.5,0],[1,0.75,0]];outlineConnect=0;fontColor=#232F3E;fillColor=#8C4FFF;strokeColor=#ffffff;dashed=0;verticalLabelPosition=bottom;verticalAlign=top;align=center;html=1;fontSize=12;fontStyle=0;aspect=fixed;shape=mxgraph.aws4.resourceIcon;resIcon=mxgraph.aws4.elasticsearch_service;flipH=0;flipV=0;" parent="1" vertex="1">
          <mxGeometry x="673" y="338.5" width="46.5" height="46.5" as="geometry" />
        </mxCell>
        <mxCell id="UzDjHrWX8j1EaaDa1J7--211" value="Kafka" style="sketch=0;points=[[0,0,0],[0.25,0,0],[0.5,0,0],[0.75,0,0],[1,0,0],[0,1,0],[0.25,1,0],[0.5,1,0],[0.75,1,0],[1,1,0],[0,0.25,0],[0,0.5,0],[0,0.75,0],[1,0.25,0],[1,0.5,0],[1,0.75,0]];outlineConnect=0;fontColor=#232F3E;fillColor=#8C4FFF;strokeColor=#ffffff;dashed=0;verticalLabelPosition=bottom;verticalAlign=top;align=center;html=1;fontSize=12;fontStyle=0;aspect=fixed;shape=mxgraph.aws4.resourceIcon;resIcon=mxgraph.aws4.managed_streaming_for_kafka;flipH=0;flipV=0;" parent="1" vertex="1">
          <mxGeometry x="746" y="338" width="50" height="50" as="geometry" />
        </mxCell>
        <mxCell id="UzDjHrWX8j1EaaDa1J7--226" style="edgeStyle=orthogonalEdgeStyle;rounded=0;orthogonalLoop=1;jettySize=auto;html=1;entryX=0;entryY=0.5;entryDx=0;entryDy=0;exitX=1;exitY=0.5;exitDx=0;exitDy=0;exitPerimeter=0;" parent="1" source="DYKHPITpJ_ogZjbrpE7d-4" target="UzDjHrWX8j1EaaDa1J7--160" edge="1">
          <mxGeometry relative="1" as="geometry">
            <mxPoint x="-49" y="272" as="sourcePoint" />
          </mxGeometry>
        </mxCell>
        <mxCell id="UzDjHrWX8j1EaaDa1J7--222" value="devices" style="sketch=0;outlineConnect=0;gradientColor=none;fontColor=#545B64;strokeColor=none;fillColor=#879196;dashed=0;verticalLabelPosition=bottom;verticalAlign=top;align=center;html=1;fontSize=12;fontStyle=0;aspect=fixed;shape=mxgraph.aws4.illustration_devices;pointerEvents=1" parent="1" vertex="1">
          <mxGeometry x="-387" y="235" width="100" height="73" as="geometry" />
        </mxCell>
        <mxCell id="DYKHPITpJ_ogZjbrpE7d-2" style="edgeStyle=orthogonalEdgeStyle;rounded=0;orthogonalLoop=1;jettySize=auto;html=1;" parent="1" source="DYKHPITpJ_ogZjbrpE7d-1" target="UzDjHrWX8j1EaaDa1J7--149" edge="1">
          <mxGeometry relative="1" as="geometry" />
        </mxCell>
        <mxCell id="DYKHPITpJ_ogZjbrpE7d-1" value="Kafka ELB" style="sketch=0;points=[[0,0,0],[0.25,0,0],[0.5,0,0],[0.75,0,0],[1,0,0],[0,1,0],[0.25,1,0],[0.5,1,0],[0.75,1,0],[1,1,0],[0,0.25,0],[0,0.5,0],[0,0.75,0],[1,0.25,0],[1,0.5,0],[1,0.75,0]];outlineConnect=0;fontColor=#232F3E;fillColor=#ED7100;strokeColor=#ffffff;dashed=0;verticalLabelPosition=bottom;verticalAlign=top;align=center;html=1;fontSize=12;fontStyle=0;aspect=fixed;shape=mxgraph.aws4.resourceIcon;resIcon=mxgraph.aws4.elastic_load_balancing;" parent="1" vertex="1">
          <mxGeometry x="849" y="161" width="50" height="50" as="geometry" />
        </mxCell>
        <mxCell id="DYKHPITpJ_ogZjbrpE7d-3" style="edgeStyle=orthogonalEdgeStyle;rounded=0;orthogonalLoop=1;jettySize=auto;html=1;exitX=0;exitY=0.75;exitDx=0;exitDy=0;exitPerimeter=0;entryX=1;entryY=0.5;entryDx=0;entryDy=0;entryPerimeter=0;" parent="1" source="DYKHPITpJ_ogZjbrpE7d-1" target="UzDjHrWX8j1EaaDa1J7--211" edge="1">
          <mxGeometry relative="1" as="geometry">
            <Array as="points">
              <mxPoint x="835" y="199" />
              <mxPoint x="835" y="363" />
            </Array>
          </mxGeometry>
        </mxCell>
        <mxCell id="DYKHPITpJ_ogZjbrpE7d-4" value="ALB" style="outlineConnect=0;dashed=0;verticalLabelPosition=bottom;verticalAlign=top;align=center;html=1;shape=mxgraph.aws3.application_load_balancer;fillColor=#F58536;gradientColor=none;" parent="1" vertex="1">
          <mxGeometry x="-123" y="235.5" width="69" height="72" as="geometry" />
        </mxCell>
        <mxCell id="DYKHPITpJ_ogZjbrpE7d-5" style="edgeStyle=orthogonalEdgeStyle;rounded=0;orthogonalLoop=1;jettySize=auto;html=1;entryX=0;entryY=0.5;entryDx=0;entryDy=0;entryPerimeter=0;" parent="1" source="UzDjHrWX8j1EaaDa1J7--222" target="DYKHPITpJ_ogZjbrpE7d-4" edge="1">
          <mxGeometry relative="1" as="geometry" />
        </mxCell>
        <mxCell id="RcUH384J-BuUXToo7k_0-1" style="edgeStyle=orthogonalEdgeStyle;rounded=0;orthogonalLoop=1;jettySize=auto;html=1;entryX=0;entryY=0.5;entryDx=0;entryDy=0;entryPerimeter=0;exitX=0.5;exitY=0;exitDx=0;exitDy=0;" parent="1" source="UzDjHrWX8j1EaaDa1J7--160" target="UzDjHrWX8j1EaaDa1J7--136" edge="1">
          <mxGeometry relative="1" as="geometry" />
        </mxCell>
        <mxCell id="RcUH384J-BuUXToo7k_0-2" style="edgeStyle=orthogonalEdgeStyle;rounded=0;orthogonalLoop=1;jettySize=auto;html=1;exitX=0.5;exitY=1;exitDx=0;exitDy=0;entryX=0;entryY=0.5;entryDx=0;entryDy=0;entryPerimeter=0;" parent="1" source="UzDjHrWX8j1EaaDa1J7--160" target="UzDjHrWX8j1EaaDa1J7--197" edge="1">
          <mxGeometry relative="1" as="geometry" />
        </mxCell>
        <mxCell id="RcUH384J-BuUXToo7k_0-4" style="edgeStyle=orthogonalEdgeStyle;rounded=0;orthogonalLoop=1;jettySize=auto;html=1;exitX=0.5;exitY=0;exitDx=0;exitDy=0;exitPerimeter=0;entryX=0.5;entryY=0;entryDx=0;entryDy=0;entryPerimeter=0;" parent="1" source="UzDjHrWX8j1EaaDa1J7--197" target="UzDjHrWX8j1EaaDa1J7--206" edge="1">
          <mxGeometry relative="1" as="geometry" />
        </mxCell>
        <mxCell id="RcUH384J-BuUXToo7k_0-5" style="edgeStyle=orthogonalEdgeStyle;rounded=0;orthogonalLoop=1;jettySize=auto;html=1;exitX=0.5;exitY=0;exitDx=0;exitDy=0;exitPerimeter=0;entryX=0.5;entryY=0;entryDx=0;entryDy=0;entryPerimeter=0;" parent="1" source="UzDjHrWX8j1EaaDa1J7--197" target="UzDjHrWX8j1EaaDa1J7--200" edge="1">
          <mxGeometry relative="1" as="geometry" />
        </mxCell>
        <mxCell id="RcUH384J-BuUXToo7k_0-6" style="edgeStyle=orthogonalEdgeStyle;rounded=0;orthogonalLoop=1;jettySize=auto;html=1;entryX=0.5;entryY=0;entryDx=0;entryDy=0;entryPerimeter=0;" parent="1" source="UzDjHrWX8j1EaaDa1J7--197" target="UzDjHrWX8j1EaaDa1J7--203" edge="1">
          <mxGeometry relative="1" as="geometry">
            <Array as="points">
              <mxPoint x="156" y="343" />
              <mxPoint x="371" y="343" />
            </Array>
          </mxGeometry>
        </mxCell>
        <mxCell id="RcUH384J-BuUXToo7k_0-7" style="edgeStyle=orthogonalEdgeStyle;rounded=0;orthogonalLoop=1;jettySize=auto;html=1;entryX=0.5;entryY=0;entryDx=0;entryDy=0;entryPerimeter=0;exitX=0.5;exitY=0;exitDx=0;exitDy=0;exitPerimeter=0;" parent="1" source="UzDjHrWX8j1EaaDa1J7--136" target="UzDjHrWX8j1EaaDa1J7--145" edge="1">
          <mxGeometry relative="1" as="geometry" />
        </mxCell>
        <mxCell id="RcUH384J-BuUXToo7k_0-8" style="edgeStyle=orthogonalEdgeStyle;rounded=0;orthogonalLoop=1;jettySize=auto;html=1;entryX=0.5;entryY=0;entryDx=0;entryDy=0;entryPerimeter=0;exitX=0.5;exitY=0;exitDx=0;exitDy=0;exitPerimeter=0;" parent="1" source="UzDjHrWX8j1EaaDa1J7--136" target="UzDjHrWX8j1EaaDa1J7--142" edge="1">
          <mxGeometry relative="1" as="geometry">
            <Array as="points">
              <mxPoint x="158" y="155" />
              <mxPoint x="373" y="155" />
            </Array>
          </mxGeometry>
        </mxCell>
        <mxCell id="RcUH384J-BuUXToo7k_0-9" style="edgeStyle=orthogonalEdgeStyle;rounded=0;orthogonalLoop=1;jettySize=auto;html=1;entryX=0.5;entryY=0;entryDx=0;entryDy=0;entryPerimeter=0;" parent="1" source="UzDjHrWX8j1EaaDa1J7--136" target="UzDjHrWX8j1EaaDa1J7--139" edge="1">
          <mxGeometry relative="1" as="geometry">
            <Array as="points">
              <mxPoint x="158" y="155" />
              <mxPoint x="265" y="155" />
            </Array>
          </mxGeometry>
        </mxCell>
      </root>
    </mxGraphModel>
  </diagram>
</mxfile>
